<svg xmlns="http://www.w3.org/2000/svg" xmlns:xlink="http://www.w3.org/1999/xlink" xmlns:lucid="lucid" width="508" height="273"><g transform="translate(-373 -540)" lucid:page-tab-id="h2LCn-kFLI1G"><path d="M412.9 624.36c0-.55.44-1 1-1h329.85c.55 0 1 .45 1 1v80.25c0 .56-.45 1-1 1H413.9c-.56 0-1-.44-1-1z" stroke="#000" stroke-opacity="0" fill="#5e5a6e"/><path d="M412.9 618.26h66.64v37.2H412.9z" fill="#e5e5e5"/><use xlink:href="#a" transform="matrix(1,0,0,1,417.8960702426141,623.2609384684191) translate(16.124074074074073 10.355555555555554)"/><use xlink:href="#b" transform="matrix(1,0,0,1,417.8960702426141,623.2609384684191) translate(1.7361111111111143 21.288888888888888)"/><path d="M479.54 618.26h66.64v37.2h-66.64z" fill="#e5e5e5"/><path d="M480.04 618.26c0 .28-.23.5-.5.5-.28 0-.5-.22-.5-.5s.22-.5.5-.5c.27 0 .5.22.5.5zm3.92 0c0 .28-.23.5-.5.5-.28 0-.5-.22-.5-.5s.22-.5.5-.5c.27 0 .5.22.5.5zm3.92 0c0 .28-.23.5-.5.5-.28 0-.5-.22-.5-.5s.22-.5.5-.5c.27 0 .5.22.5.5zm3.92 0c0 .28-.23.5-.5.5-.28 0-.5-.22-.5-.5s.22-.5.5-.5c.27 0 .5.22.5.5zm3.92 0c0 .28-.23.5-.5.5-.28 0-.5-.22-.5-.5s.22-.5.5-.5c.27 0 .5.22.5.5zm3.92 0c0 .28-.23.5-.5.5-.28 0-.5-.22-.5-.5s.22-.5.5-.5c.27 0 .5.22.5.5zm3.92 0c0 .28-.23.5-.5.5-.28 0-.5-.22-.5-.5s.22-.5.5-.5c.27 0 .5.22.5.5zm3.92 0c0 .28-.23.5-.5.5-.28 0-.5-.22-.5-.5s.22-.5.5-.5c.27 0 .5.22.5.5zm3.92 0c0 .28-.23.5-.5.5-.28 0-.5-.22-.5-.5s.22-.5.5-.5c.27 0 .5.22.5.5zm3.92 0c0 .28-.23.5-.5.5-.28 0-.5-.22-.5-.5s.22-.5.5-.5c.27 0 .5.22.5.5zm3.92 0c0 .28-.23.5-.5.5-.28 0-.5-.22-.5-.5s.22-.5.5-.5c.27 0 .5.22.5.5zm3.92 0c0 .28-.22.5-.5.5s-.5-.22-.5-.5.22-.5.5-.5.5.22.5.5zm3.92 0c0 .28-.22.5-.5.5s-.5-.22-.5-.5.22-.5.5-.5.5.22.5.5zm3.92 0c0 .28-.22.5-.5.5s-.5-.22-.5-.5.22-.5.5-.5.5.22.5.5zm3.92 0c0 .28-.22.5-.5.5s-.5-.22-.5-.5.22-.5.5-.5.5.22.5.5zm3.92 0c0 .28-.22.5-.5.5s-.5-.22-.5-.5.22-.5.5-.5.5.22.5.5zm3.92 0c0 .28-.22.5-.5.5s-.5-.22-.5-.5.22-.5.5-.5.5.22.5.5zm3.92 0c0 .28-.22.5-.5.5s-.5-.22-.5-.5.22-.5.5-.5.5.22.5.5zm0 4.13c0 .27-.22.5-.5.5s-.5-.23-.5-.5c0-.28.22-.5.5-.5s.5.22.5.5zm0 4.13c0 .27-.22.5-.5.5s-.5-.23-.5-.5c0-.28.22-.5.5-.5s.5.22.5.5zm0 4.13c0 .28-.22.5-.5.5s-.5-.22-.5-.5.22-.5.5-.5.5.22.5.5zm0 4.13c0 .27-.22.5-.5.5s-.5-.23-.5-.5c0-.28.22-.5.5-.5s.5.22.5.5zm0 4.13c0 .27-.22.5-.5.5s-.5-.23-.5-.5c0-.28.22-.5.5-.5s.5.22.5.5zm0 4.13c0 .28-.22.5-.5.5s-.5-.22-.5-.5.22-.5.5-.5.5.22.5.5zm0 4.13c0 .27-.22.5-.5.5s-.5-.23-.5-.5c0-.28.22-.5.5-.5s.5.22.5.5zm0 4.13c0 .27-.22.5-.5.5s-.5-.23-.5-.5c0-.28.22-.5.5-.5s.5.22.5.5zm0 4.13c0 .28-.22.5-.5.5s-.5-.22-.5-.5.22-.5.5-.5.5.22.5.5zm-3.92 0c0 .28-.22.5-.5.5s-.5-.22-.5-.5.22-.5.5-.5.5.22.5.5zm-3.92 0c0 .28-.22.5-.5.5s-.5-.22-.5-.5.22-.5.5-.5.5.22.5.5zm-3.92 0c0 .28-.22.5-.5.5s-.5-.22-.5-.5.22-.5.5-.5.5.22.5.5zm-3.92 0c0 .28-.22.5-.5.5s-.5-.22-.5-.5.22-.5.5-.5.5.22.5.5zm-3.92 0c0 .28-.22.5-.5.5s-.5-.22-.5-.5.22-.5.5-.5.5.22.5.5zm-3.92 0c0 .28-.22.5-.5.5s-.5-.22-.5-.5.22-.5.5-.5.5.22.5.5zm-3.92 0c0 .28-.23.5-.5.5-.28 0-.5-.22-.5-.5s.22-.5.5-.5c.27 0 .5.22.5.5zm-3.92 0c0 .28-.23.5-.5.5-.28 0-.5-.22-.5-.5s.22-.5.5-.5c.27 0 .5.22.5.5zm-3.92 0c0 .28-.23.5-.5.5-.28 0-.5-.22-.5-.5s.22-.5.5-.5c.27 0 .5.22.5.5zm-3.92 0c0 .28-.23.5-.5.5-.28 0-.5-.22-.5-.5s.22-.5.5-.5c.27 0 .5.22.5.5zm-3.92 0c0 .28-.23.5-.5.5-.28 0-.5-.22-.5-.5s.22-.5.5-.5c.27 0 .5.22.5.5zm-3.92 0c0 .28-.23.5-.5.5-.28 0-.5-.22-.5-.5s.22-.5.5-.5c.27 0 .5.22.5.5zm-3.92 0c0 .28-.23.5-.5.5-.28 0-.5-.22-.5-.5s.22-.5.5-.5c.27 0 .5.22.5.5zm-3.92 0c0 .28-.23.5-.5.5-.28 0-.5-.22-.5-.5s.22-.5.5-.5c.27 0 .5.22.5.5zm-3.92 0c0 .28-.23.5-.5.5-.28 0-.5-.22-.5-.5s.22-.5.5-.5c.27 0 .5.22.5.5zm-3.92 0c0 .28-.23.5-.5.5-.28 0-.5-.22-.5-.5s.22-.5.5-.5c.27 0 .5.22.5.5zm-3.92 0c0 .28-.23.5-.5.5-.28 0-.5-.22-.5-.5s.22-.5.5-.5c.27 0 .5.22.5.5zm0-4.13c0 .27-.23.5-.5.5-.28 0-.5-.23-.5-.5 0-.28.22-.5.5-.5.27 0 .5.22.5.5zm0-4.14c0 .27-.23.5-.5.5-.28 0-.5-.23-.5-.5 0-.28.22-.5.5-.5.27 0 .5.22.5.5zm0-4.14c0 .28-.23.5-.5.5-.28 0-.5-.22-.5-.5s.22-.5.5-.5c.27 0 .5.22.5.5zm0-4.13c0 .27-.23.5-.5.5-.28 0-.5-.23-.5-.5 0-.28.22-.5.5-.5.27 0 .5.22.5.5zm0-4.14c0 .27-.23.5-.5.5-.28 0-.5-.23-.5-.5 0-.28.22-.5.5-.5.27 0 .5.22.5.5zm0-4.14c0 .28-.23.5-.5.5-.28 0-.5-.22-.5-.5s.22-.5.5-.5c.27 0 .5.22.5.5zm0-4.13c0 .27-.23.5-.5.5-.28 0-.5-.23-.5-.5 0-.28.22-.5.5-.5.27 0 .5.22.5.5zm0-4.14c0 .27-.23.5-.5.5-.28 0-.5-.23-.5-.5 0-.28.22-.5.5-.5.27 0 .5.22.5.5z"/><use xlink:href="#a" transform="matrix(1,0,0,1,484.5378025260786,623.2609384684191) translate(16.124074074074073 10.355555555555554)"/><use xlink:href="#c" transform="matrix(1,0,0,1,484.5378025260786,623.2609384684191) translate(9.290740740740741 21.288888888888888)"/><path d="M546.18 618.26h66.64v37.2h-66.64z" fill="#e5e5e5"/><path d="M546.68 618.26c0 .28-.22.5-.5.5s-.5-.22-.5-.5.22-.5.5-.5.5.22.5.5zm3.92 0c0 .28-.22.5-.5.5s-.5-.22-.5-.5.22-.5.5-.5.5.22.5.5zm3.92 0c0 .28-.22.5-.5.5s-.5-.22-.5-.5.22-.5.5-.5.5.22.5.5zm3.92 0c0 .28-.22.5-.5.5s-.5-.22-.5-.5.22-.5.5-.5.5.22.5.5zm3.92 0c0 .28-.22.5-.5.5s-.5-.22-.5-.5.22-.5.5-.5.5.22.5.5zm3.92 0c0 .28-.22.5-.5.5s-.5-.22-.5-.5.22-.5.5-.5.5.22.5.5zm3.92 0c0 .28-.22.5-.5.5s-.5-.22-.5-.5.22-.5.5-.5.5.22.5.5zm3.92 0c0 .28-.22.5-.5.5s-.5-.22-.5-.5.22-.5.5-.5.5.22.5.5zm3.92 0c0 .28-.22.5-.5.5s-.5-.22-.5-.5.22-.5.5-.5.5.22.5.5zm3.92 0c0 .28-.22.5-.5.5s-.5-.22-.5-.5.22-.5.5-.5.5.22.5.5zm3.92 0c0 .28-.22.5-.5.5s-.5-.22-.5-.5.22-.5.5-.5.5.22.5.5zm3.92 0c0 .28-.22.5-.5.5s-.5-.22-.5-.5.22-.5.5-.5.5.22.5.5zm3.92 0c0 .28-.22.5-.5.5s-.5-.22-.5-.5.22-.5.5-.5.5.22.5.5zm3.92 0c0 .28-.22.5-.5.5s-.5-.22-.5-.5.22-.5.5-.5.5.22.5.5zm3.92 0c0 .28-.22.5-.5.5s-.5-.22-.5-.5.22-.5.5-.5.5.22.5.5zm3.92 0c0 .28-.22.5-.5.5s-.5-.22-.5-.5.22-.5.5-.5.5.22.5.5zm3.92 0c0 .28-.22.5-.5.5-.27 0-.5-.22-.5-.5s.23-.5.5-.5c.28 0 .5.22.5.5zm3.92 0c0 .28-.22.5-.5.5-.27 0-.5-.22-.5-.5s.23-.5.5-.5c.28 0 .5.22.5.5zm0 4.13c0 .27-.22.5-.5.5-.27 0-.5-.23-.5-.5 0-.28.23-.5.5-.5.28 0 .5.22.5.5zm0 4.13c0 .27-.22.5-.5.5-.27 0-.5-.23-.5-.5 0-.28.23-.5.5-.5.28 0 .5.22.5.5zm0 4.13c0 .28-.22.5-.5.5-.27 0-.5-.22-.5-.5s.23-.5.5-.5c.28 0 .5.22.5.5zm0 4.13c0 .27-.22.5-.5.5-.27 0-.5-.23-.5-.5 0-.28.23-.5.5-.5.28 0 .5.22.5.5zm0 4.13c0 .27-.22.5-.5.5-.27 0-.5-.23-.5-.5 0-.28.23-.5.5-.5.28 0 .5.22.5.5zm0 4.13c0 .28-.22.5-.5.5-.27 0-.5-.22-.5-.5s.23-.5.5-.5c.28 0 .5.22.5.5zm0 4.13c0 .27-.22.5-.5.5-.27 0-.5-.23-.5-.5 0-.28.23-.5.5-.5.28 0 .5.22.5.5zm0 4.13c0 .27-.22.5-.5.5-.27 0-.5-.23-.5-.5 0-.28.23-.5.5-.5.28 0 .5.22.5.5zm0 4.13c0 .28-.22.5-.5.5-.27 0-.5-.22-.5-.5s.23-.5.5-.5c.28 0 .5.22.5.5zm-3.92 0c0 .28-.22.5-.5.5-.27 0-.5-.22-.5-.5s.23-.5.5-.5c.28 0 .5.22.5.5zm-3.92 0c0 .28-.22.5-.5.5s-.5-.22-.5-.5.22-.5.5-.5.5.22.5.5zm-3.92 0c0 .28-.22.5-.5.5s-.5-.22-.5-.5.22-.5.5-.5.5.22.5.5zm-3.92 0c0 .28-.22.5-.5.5s-.5-.22-.5-.5.22-.5.5-.5.5.22.5.5zm-3.92 0c0 .28-.22.5-.5.5s-.5-.22-.5-.5.22-.5.5-.5.5.22.5.5zm-3.92 0c0 .28-.22.5-.5.5s-.5-.22-.5-.5.22-.5.5-.5.5.22.5.5zm-3.92 0c0 .28-.22.5-.5.5s-.5-.22-.5-.5.22-.5.5-.5.5.22.5.5zm-3.92 0c0 .28-.22.5-.5.5s-.5-.22-.5-.5.22-.5.5-.5.5.22.5.5zm-3.92 0c0 .28-.22.5-.5.5s-.5-.22-.5-.5.22-.5.5-.5.5.22.5.5zm-3.92 0c0 .28-.22.5-.5.5s-.5-.22-.5-.5.22-.5.5-.5.5.22.5.5zm-3.92 0c0 .28-.22.5-.5.5s-.5-.22-.5-.5.22-.5.5-.5.5.22.5.5zm-3.92 0c0 .28-.22.5-.5.5s-.5-.22-.5-.5.22-.5.5-.5.5.22.5.5zm-3.92 0c0 .28-.22.5-.5.5s-.5-.22-.5-.5.22-.5.5-.5.5.22.5.5zm-3.92 0c0 .28-.22.5-.5.5s-.5-.22-.5-.5.22-.5.5-.5.5.22.5.5zm-3.92 0c0 .28-.22.5-.5.5s-.5-.22-.5-.5.22-.5.5-.5.5.22.5.5zm-3.92 0c0 .28-.22.5-.5.5s-.5-.22-.5-.5.22-.5.5-.5.5.22.5.5zm-3.92 0c0 .28-.22.5-.5.5s-.5-.22-.5-.5.22-.5.5-.5.5.22.5.5zm0-4.13c0 .27-.22.5-.5.5s-.5-.23-.5-.5c0-.28.22-.5.5-.5s.5.22.5.5zm0-4.14c0 .27-.22.5-.5.5s-.5-.23-.5-.5c0-.28.22-.5.5-.5s.5.22.5.5zm0-4.14c0 .28-.22.5-.5.5s-.5-.22-.5-.5.22-.5.5-.5.5.22.5.5zm0-4.13c0 .27-.22.5-.5.5s-.5-.23-.5-.5c0-.28.22-.5.5-.5s.5.22.5.5zm0-4.14c0 .27-.22.5-.5.5s-.5-.23-.5-.5c0-.28.22-.5.5-.5s.5.22.5.5zm0-4.14c0 .28-.22.5-.5.5s-.5-.22-.5-.5.22-.5.5-.5.5.22.5.5zm0-4.13c0 .27-.22.5-.5.5s-.5-.23-.5-.5c0-.28.22-.5.5-.5s.5.22.5.5zm0-4.14c0 .27-.22.5-.5.5s-.5-.23-.5-.5c0-.28.22-.5.5-.5s.5.22.5.5z"/><use xlink:href="#a" transform="matrix(1,0,0,1,551.1795348095433,623.2609384684191) translate(16.124074074074073 10.355555555555554)"/><use xlink:href="#c" transform="matrix(1,0,0,1,551.1795348095433,623.2609384684191) translate(9.290740740740741 21.288888888888888)"/><path d="M612.82 618.26h66.64v37.2h-66.64z" fill="#e5e5e5"/><path d="M613.32 618.26c0 .28-.22.5-.5.5-.27 0-.5-.22-.5-.5s.23-.5.5-.5c.28 0 .5.22.5.5zm3.92 0c0 .28-.22.5-.5.5-.27 0-.5-.22-.5-.5s.23-.5.5-.5c.28 0 .5.22.5.5zm3.92 0c0 .28-.22.5-.5.5-.27 0-.5-.22-.5-.5s.23-.5.5-.5c.28 0 .5.22.5.5zm3.92 0c0 .28-.22.5-.5.5-.27 0-.5-.22-.5-.5s.23-.5.5-.5c.28 0 .5.22.5.5zm3.92 0c0 .28-.22.5-.5.5-.27 0-.5-.22-.5-.5s.23-.5.5-.5c.28 0 .5.22.5.5zm3.92 0c0 .28-.22.5-.5.5-.27 0-.5-.22-.5-.5s.23-.5.5-.5c.28 0 .5.22.5.5zm3.92 0c0 .28-.22.5-.5.5-.27 0-.5-.22-.5-.5s.23-.5.5-.5c.28 0 .5.22.5.5zm3.92 0c0 .28-.22.5-.5.5-.27 0-.5-.22-.5-.5s.23-.5.5-.5c.28 0 .5.22.5.5zm3.92 0c0 .28-.22.5-.5.5-.27 0-.5-.22-.5-.5s.23-.5.5-.5c.28 0 .5.22.5.5zm3.92 0c0 .28-.22.5-.5.5-.27 0-.5-.22-.5-.5s.23-.5.5-.5c.28 0 .5.22.5.5zm3.92 0c0 .28-.22.5-.5.5-.27 0-.5-.22-.5-.5s.23-.5.5-.5c.28 0 .5.22.5.5zm3.92 0c0 .28-.22.5-.5.5-.27 0-.5-.22-.5-.5s.23-.5.5-.5c.28 0 .5.22.5.5zm3.92 0c0 .28-.22.5-.5.5-.27 0-.5-.22-.5-.5s.23-.5.5-.5c.28 0 .5.22.5.5zm3.92 0c0 .28-.22.5-.5.5-.27 0-.5-.22-.5-.5s.23-.5.5-.5c.28 0 .5.22.5.5zm3.92 0c0 .28-.22.5-.5.5-.27 0-.5-.22-.5-.5s.23-.5.5-.5c.28 0 .5.22.5.5zm3.92 0c0 .28-.22.5-.5.5-.27 0-.5-.22-.5-.5s.23-.5.5-.5c.28 0 .5.22.5.5zm3.92 0c0 .28-.22.5-.5.5-.27 0-.5-.22-.5-.5s.23-.5.5-.5c.28 0 .5.22.5.5zm3.92 0c0 .28-.22.5-.5.5-.27 0-.5-.22-.5-.5s.23-.5.5-.5c.28 0 .5.22.5.5zm0 4.13c0 .27-.22.5-.5.5-.27 0-.5-.23-.5-.5 0-.28.23-.5.5-.5.28 0 .5.22.5.5zm0 4.13c0 .27-.22.5-.5.5-.27 0-.5-.23-.5-.5 0-.28.23-.5.5-.5.28 0 .5.22.5.5zm0 4.13c0 .28-.22.5-.5.5-.27 0-.5-.22-.5-.5s.23-.5.5-.5c.28 0 .5.22.5.5zm0 4.13c0 .27-.22.5-.5.5-.27 0-.5-.23-.5-.5 0-.28.23-.5.5-.5.28 0 .5.22.5.5zm0 4.13c0 .27-.22.5-.5.5-.27 0-.5-.23-.5-.5 0-.28.23-.5.5-.5.28 0 .5.22.5.5zm0 4.13c0 .28-.22.5-.5.5-.27 0-.5-.22-.5-.5s.23-.5.5-.5c.28 0 .5.22.5.5zm0 4.13c0 .27-.22.5-.5.5-.27 0-.5-.23-.5-.5 0-.28.23-.5.5-.5.28 0 .5.22.5.5zm0 4.13c0 .27-.22.5-.5.5-.27 0-.5-.23-.5-.5 0-.28.23-.5.5-.5.28 0 .5.22.5.5zm0 4.13c0 .28-.22.5-.5.5-.27 0-.5-.22-.5-.5s.23-.5.5-.5c.28 0 .5.22.5.5zm-3.92 0c0 .28-.22.5-.5.5-.27 0-.5-.22-.5-.5s.23-.5.5-.5c.28 0 .5.22.5.5zm-3.92 0c0 .28-.22.5-.5.5-.27 0-.5-.22-.5-.5s.23-.5.5-.5c.28 0 .5.22.5.5zm-3.92 0c0 .28-.22.5-.5.5-.27 0-.5-.22-.5-.5s.23-.5.5-.5c.28 0 .5.22.5.5zm-3.92 0c0 .28-.22.5-.5.5-.27 0-.5-.22-.5-.5s.23-.5.5-.5c.28 0 .5.22.5.5zm-3.92 0c0 .28-.22.5-.5.5-.27 0-.5-.22-.5-.5s.23-.5.5-.5c.28 0 .5.22.5.5zm-3.92 0c0 .28-.22.5-.5.5-.27 0-.5-.22-.5-.5s.23-.5.5-.5c.28 0 .5.22.5.5zm-3.92 0c0 .28-.22.5-.5.5-.27 0-.5-.22-.5-.5s.23-.5.5-.5c.28 0 .5.22.5.5zm-3.92 0c0 .28-.22.5-.5.5-.27 0-.5-.22-.5-.5s.23-.5.5-.5c.28 0 .5.22.5.5zm-3.92 0c0 .28-.22.5-.5.5-.27 0-.5-.22-.5-.5s.23-.5.5-.5c.28 0 .5.22.5.5zm-3.92 0c0 .28-.22.5-.5.5-.27 0-.5-.22-.5-.5s.23-.5.5-.5c.28 0 .5.22.5.5zm-3.92 0c0 .28-.22.5-.5.5-.27 0-.5-.22-.5-.5s.23-.5.5-.5c.28 0 .5.22.5.5zm-3.92 0c0 .28-.22.5-.5.5-.27 0-.5-.22-.5-.5s.23-.5.5-.5c.28 0 .5.22.5.5zm-3.92 0c0 .28-.22.5-.5.5-.27 0-.5-.22-.5-.5s.23-.5.5-.5c.28 0 .5.22.5.5zm-3.92 0c0 .28-.22.5-.5.5-.27 0-.5-.22-.5-.5s.23-.5.5-.5c.28 0 .5.22.5.5zm-3.92 0c0 .28-.22.5-.5.5-.27 0-.5-.22-.5-.5s.23-.5.5-.5c.28 0 .5.22.5.5zm-3.92 0c0 .28-.22.5-.5.5-.27 0-.5-.22-.5-.5s.23-.5.5-.5c.28 0 .5.22.5.5zm-3.92 0c0 .28-.22.5-.5.5-.27 0-.5-.22-.5-.5s.23-.5.5-.5c.28 0 .5.22.5.5zm0-4.13c0 .27-.22.5-.5.5-.27 0-.5-.23-.5-.5 0-.28.23-.5.5-.5.28 0 .5.22.5.5zm0-4.14c0 .27-.22.5-.5.5-.27 0-.5-.23-.5-.5 0-.28.23-.5.5-.5.28 0 .5.22.5.5zm0-4.14c0 .28-.22.5-.5.5-.27 0-.5-.22-.5-.5s.23-.5.5-.5c.28 0 .5.22.5.5zm0-4.13c0 .27-.22.5-.5.5-.27 0-.5-.23-.5-.5 0-.28.23-.5.5-.5.28 0 .5.22.5.5zm0-4.14c0 .27-.22.5-.5.5-.27 0-.5-.23-.5-.5 0-.28.23-.5.5-.5.28 0 .5.22.5.5zm0-4.14c0 .28-.22.5-.5.5-.27 0-.5-.22-.5-.5s.23-.5.5-.5c.28 0 .5.22.5.5zm0-4.13c0 .27-.22.5-.5.5-.27 0-.5-.23-.5-.5 0-.28.23-.5.5-.5.28 0 .5.22.5.5zm0-4.14c0 .27-.22.5-.5.5-.27 0-.5-.23-.5-.5 0-.28.23-.5.5-.5.28 0 .5.22.5.5z"/><use xlink:href="#d" transform="matrix(1,0,0,1,617.8212670930078,623.2609384684191) translate(11.315432098765434 15.822222222222223)"/><path d="M679.46 618.26h65.3v37.2h-65.3z" fill="#e5e5e5"/><use xlink:href="#e" transform="matrix(1,0,0,1,684.4629993764723,623.2609384684191) translate(21.672839506172842 15.822222222222223)"/><g filter="url(#f)"><path d="M412.9 651.76h331.85v25.33H412.9z" fill="#a6c5d9"/><use xlink:href="#g" transform="matrix(1,0,0,1,424.8960702426141,663.7634521819732) translate(132.27253086419753 7.288888888888889)"/></g><path d="M744.75 622.77H844.8v82.26H744.76z" fill="none"/><path d="M744.75 705.03c5.52 0 10-4.48 10-10V673.9c0-5.52 4.48-10 10-10-5.52 0-10-4.48-10-10v-21.13c0-5.52-4.48-10-10-10" fill="none"/><path d="M745.75 705.03c0 .55-.45 1-1 1s-1-.45-1-1c0-.56.45-1 1-1s1 .44 1 1zm3.8-.84c0 .54-.46 1-1 1-.56 0-1-.46-1-1 0-.56.44-1 1-1 .54 0 1 .44 1 1zm3.2-2.2c0 .57-.46 1-1 1-.57 0-1-.43-1-1 0-.54.43-1 1-1 .54 0 1 .46 1 1zm2.16-3.18c0 .55-.44 1-1 1-.54 0-1-.45-1-1 0-.56.46-1 1-1 .56 0 1 .44 1 1zm.85-3.8c0 .56-.45 1-1 1s-1-.44-1-1c0-.55.45-1 1-1s1 .45 1 1zm0-4.22c0 .55-.45 1-1 1s-1-.45-1-1 .45-1 1-1 1 .45 1 1zm0-4.22c0 .55-.45 1-1 1s-1-.45-1-1c0-.56.45-1 1-1s1 .44 1 1zm0-4.23c0 .55-.45 1-1 1s-1-.45-1-1 .45-1 1-1 1 .45 1 1zm0-4.23c0 .56-.45 1-1 1s-1-.44-1-1c0-.55.45-1 1-1s1 .45 1 1zm0-4.22c0 .55-.45 1-1 1s-1-.45-1-1 .45-1 1-1 1 .45 1 1zm.83-3.8c0 .56-.44 1-1 1-.55 0-1-.44-1-1 0-.54.45-1 1-1 .56 0 1 .46 1 1zm2.18-3.2c0 .56-.45 1-1 1s-1-.44-1-1c0-.54.45-1 1-1s1 .46 1 1zm3.2-2.16c0 .55-.45 1-1 1-.56 0-1-.45-1-1 0-.56.44-1 1-1 .55 0 1 .44 1 1zm3.8-.84c0 .55-.46 1-1 1-.56 0-1-.45-1-1s.44-1 1-1c.54 0 1 .45 1 1zm-3.8-.84c0 .56-.45 1-1 1-.56 0-1-.44-1-1 0-.55.44-1 1-1 .55 0 1 .45 1 1zm-3.2-2.17c0 .54-.45 1-1 1s-1-.46-1-1c0-.56.45-1 1-1s1 .44 1 1zm-2.18-3.2c0 .54-.44 1-1 1-.55 0-1-.46-1-1 0-.56.45-1 1-1 .56 0 1 .44 1 1zm-.83-3.8c0 .55-.45 1-1 1s-1-.45-1-1 .45-1 1-1 1 .45 1 1zm0-4.23c0 .56-.45 1-1 1s-1-.44-1-1c0-.55.45-1 1-1s1 .45 1 1zm0-4.22c0 .55-.45 1-1 1s-1-.45-1-1 .45-1 1-1 1 .45 1 1zm0-4.23c0 .56-.45 1-1 1s-1-.44-1-1c0-.55.45-1 1-1s1 .45 1 1zm0-4.22c0 .55-.45 1-1 1s-1-.45-1-1 .45-1 1-1 1 .45 1 1zm0-4.23c0 .56-.45 1-1 1s-1-.44-1-1c0-.55.45-1 1-1s1 .45 1 1zm-.84-3.8c0 .56-.44 1-1 1-.54 0-1-.44-1-1 0-.54.46-1 1-1 .56 0 1 .46 1 1zm-2.08-3.27c0 .56-.45 1-1 1s-1-.44-1-1c0-.55.45-1 1-1s1 .45 1 1zm-3.28-2.1c0 .56-.44 1-1 1-.55 0-1-.44-1-1 0-.54.45-1 1-1 .56 0 1 .46 1 1z" fill="#a09fad"/><use xlink:href="#h" transform="matrix(1,0,0,1,779.7478541769078,627.7741383344154) translate(-5.7487654320987644 39.65555555555555)"/><path d="M412.9 586.74h331.85v36.03H412.9z" fill="#ccc"/><use xlink:href="#i" transform="matrix(1,0,0,1,424.896070242614,598.736066065329) translate(104.76697530864197 10.844444444444445)"/><use xlink:href="#j" transform="matrix(1,0,0,1,424.896070242614,598.736066065329) translate(137.07438271604937 10.844444444444445)"/><path d="M496.36 678.03h81.46v27.67h-81.46z" stroke="#000" stroke-opacity="0" fill="#ccc"/><use xlink:href="#k" transform="matrix(1,0,0,1,498.3590162261876,680.0332818705523) translate(1.5432098765432087 13.777777777777779)"/><path d="M496.36 705.7h81.46v44.25h-81.46z" stroke="#000" stroke-opacity="0" fill="#a09fad"/><use xlink:href="#l" transform="matrix(1,0,0,1,498.3590162261876,707.6976609972569) translate(16.592592592592588 22.27777777777778)"/><path d="M412.9 750.95c0-.55.44-1 1-1h102.4c.56 0 1 .45 1 1v21.3c0 .57-.44 1-1 1H413.9c-.56 0-1-.43-1-1z" stroke="#000" stroke-opacity="0" fill="#333"/><use xlink:href="#m" transform="matrix(1,0,0,1,413.896070242614,750.9479623410572) translate(34.864197530864196 13.222222222222221)"/><path d="M524.85 750.95c0-.55.45-1 1-1h87.7c.54 0 1 .45 1 1v21.3c0 .57-.46 1-1 1h-87.7c-.55 0-1-.43-1-1z" stroke="#000" stroke-opacity="0" fill="#333"/><use xlink:href="#n" transform="matrix(1,0,0,1,525.8525059604578,750.9479623410572) translate(31.391975308641975 13.222222222222221)"/><path d="M622.08 750.95c0-.55.45-1 1-1h37.2c.56 0 1 .45 1 1v21.3c0 .57-.44 1-1 1h-37.2c-.55 0-1-.43-1-1z" stroke="#000" stroke-opacity="0" fill="#333"/><use xlink:href="#o" transform="matrix(1,0,0,1,623.0790146799013,750.9479623410572) translate(3.5987654320987676 13.222222222222221)"/><path d="M663.28 677.95h81.47v27.66h-81.47z" stroke="#000" stroke-opacity="0" fill="#ccc"/><use xlink:href="#p" transform="matrix(1,0,0,1,665.2849081933346,679.9477386024229) translate(13.111111111111107 13.777777777777779)"/><path d="M663.28 706.7c0-.55.45-1 1-1h79.47c.55 0 1 .45 1 1V728c0 .57-.45 1-1 1h-79.47c-.55 0-1-.43-1-1z" stroke="#000" stroke-opacity="0" fill="#333"/><use xlink:href="#q" transform="matrix(1,0,0,1,664.2849081933346,706.6976609972569) translate(13.472222222222221 13.222222222222221)"/><path d="M579.82 705.6h81.46v44.26h-81.46z" stroke="#000" stroke-opacity="0" fill="#a09fad"/><use xlink:href="#r" transform="matrix(1,0,0,1,581.8219622097611,707.6121177291275) translate(19.777777777777775 22.27777777777778)"/><path d="M579.82 678.03h81.46v27.67h-81.46z" stroke="#000" stroke-opacity="0" fill="#ccc"/><use xlink:href="#s" transform="matrix(1,0,0,1,581.8219622097611,680.0332818705523) translate(15.074074074074069 13.777777777777779)"/><path d="M412.9 678.03h81.46v27.67H412.9z" stroke="#000" stroke-opacity="0" fill="#ccc"/><g><use xlink:href="#t" transform="matrix(1,0,0,1,414.8960702426141,680.0332818705523) translate(10.901234567901234 13.777777777777779)"/></g><path d="M412.9 705.7h81.46v44.25H412.9z" stroke="#000" stroke-opacity="0" fill="#a09fad"/><g><use xlink:href="#u" transform="matrix(1,0,0,1,414.89607024261403,707.6976609972569) translate(-0.407407407407419 22.27777777777778)"/></g><defs><path d="M24-231v-30h32v30H24zM24 0v-190h32V0H24" id="v"/><path d="M210-169c-67 3-38 105-44 169h-31v-121c0-29-5-50-35-48C34-165 62-65 56 0H25l-1-190h30c1 10-1 24 2 32 10-44 99-50 107 0 11-21 27-35 58-36 85-2 47 119 55 194h-31v-121c0-29-5-49-35-48" id="w"/><path d="M141-36C126-15 110 5 73 4 37 3 15-17 15-53c-1-64 63-63 125-63 3-35-9-54-41-54-24 1-41 7-42 31l-33-3c5-37 33-52 76-52 45 0 72 20 72 64v82c-1 20 7 32 28 27v20c-31 9-61-2-59-35zM48-53c0 20 12 33 32 33 41-3 63-29 60-74-43 2-92-5-92 41" id="x"/><path d="M177-190C167-65 218 103 67 71c-23-6-38-20-44-43l32-5c15 47 100 32 89-28v-30C133-14 115 1 83 1 29 1 15-40 15-95c0-56 16-97 71-98 29-1 48 16 59 35 1-10 0-23 2-32h30zM94-22c36 0 50-32 50-73 0-42-14-75-50-75-39 0-46 34-46 75s6 73 46 73" id="y"/><path d="M100-194c63 0 86 42 84 106H49c0 40 14 67 53 68 26 1 43-12 49-29l28 8c-11 28-37 45-77 45C44 4 14-33 15-96c1-61 26-98 85-98zm52 81c6-60-76-77-97-28-3 7-6 17-6 28h103" id="z"/><g id="a"><use transform="matrix(0.02530864197530864,0,0,0.02530864197530864,0,0)" xlink:href="#v"/><use transform="matrix(0.02530864197530864,0,0,0.02530864197530864,1.9993827160493824,0)" xlink:href="#w"/><use transform="matrix(0.02530864197530864,0,0,0.02530864197530864,9.566666666666666,0)" xlink:href="#x"/><use transform="matrix(0.02530864197530864,0,0,0.02530864197530864,14.628395061728394,0)" xlink:href="#y"/><use transform="matrix(0.02530864197530864,0,0,0.02530864197530864,19.690123456790122,0)" xlink:href="#z"/></g><path d="M212-179c-10-28-35-45-73-45-59 0-87 40-87 99 0 60 29 101 89 101 43 0 62-24 78-52l27 14C228-24 195 4 139 4 59 4 22-46 18-125c-6-104 99-153 187-111 19 9 31 26 39 46" id="A"/><path d="M24 0v-261h32V0H24" id="B"/><path d="M135-143c-3-34-86-38-87 0 15 53 115 12 119 90S17 21 10-45l28-5c4 36 97 45 98 0-10-56-113-15-118-90-4-57 82-63 122-42 12 7 21 19 24 35" id="C"/><path d="M101-234c-31-9-42 10-38 44h38v23H63V0H32v-167H5v-23h27c-7-52 17-82 69-68v24" id="D"/><path d="M96-169c-40 0-48 33-48 73s9 75 48 75c24 0 41-14 43-38l32 2c-6 37-31 61-74 61-59 0-76-41-82-99-10-93 101-131 147-64 4 7 5 14 7 22l-32 3c-4-21-16-35-41-35" id="E"/><path d="M59-47c-2 24 18 29 38 22v24C64 9 27 4 27-40v-127H5v-23h24l9-43h21v43h35v23H59v120" id="F"/><path d="M100-194c62-1 85 37 85 99 1 63-27 99-86 99S16-35 15-95c0-66 28-99 85-99zM99-20c44 1 53-31 53-75 0-43-8-75-51-75s-53 32-53 75 10 74 51 75" id="G"/><path d="M117-194c89-4 53 116 60 194h-32v-121c0-31-8-49-39-48C34-167 62-67 57 0H25l-1-190h30c1 10-1 24 2 32 11-22 29-35 61-36" id="H"/><g id="b"><use transform="matrix(0.02530864197530864,0,0,0.02530864197530864,0,0)" xlink:href="#A"/><use transform="matrix(0.02530864197530864,0,0,0.02530864197530864,6.554938271604938,0)" xlink:href="#B"/><use transform="matrix(0.02530864197530864,0,0,0.02530864197530864,8.55432098765432,0)" xlink:href="#x"/><use transform="matrix(0.02530864197530864,0,0,0.02530864197530864,13.616049382716048,0)" xlink:href="#C"/><use transform="matrix(0.02530864197530864,0,0,0.02530864197530864,18.171604938271603,0)" xlink:href="#C"/><use transform="matrix(0.02530864197530864,0,0,0.02530864197530864,22.727160493827157,0)" xlink:href="#v"/><use transform="matrix(0.02530864197530864,0,0,0.02530864197530864,24.72654320987654,0)" xlink:href="#D"/><use transform="matrix(0.02530864197530864,0,0,0.02530864197530864,27.257407407407403,0)" xlink:href="#v"/><use transform="matrix(0.02530864197530864,0,0,0.02530864197530864,29.25679012345679,0)" xlink:href="#E"/><use transform="matrix(0.02530864197530864,0,0,0.02530864197530864,33.81234567901234,0)" xlink:href="#x"/><use transform="matrix(0.02530864197530864,0,0,0.02530864197530864,38.874074074074066,0)" xlink:href="#F"/><use transform="matrix(0.02530864197530864,0,0,0.02530864197530864,41.404938271604934,0)" xlink:href="#v"/><use transform="matrix(0.02530864197530864,0,0,0.02530864197530864,43.404320987654316,0)" xlink:href="#G"/><use transform="matrix(0.02530864197530864,0,0,0.02530864197530864,48.466049382716044,0)" xlink:href="#H"/></g><path d="M30-248c118-7 216 8 213 122C240-48 200 0 122 0H30v-248zM63-27c89 8 146-16 146-99s-60-101-146-95v194" id="I"/><g id="c"><use transform="matrix(0.02530864197530864,0,0,0.02530864197530864,0,0)" xlink:href="#I"/><use transform="matrix(0.02530864197530864,0,0,0.02530864197530864,6.554938271604938,0)" xlink:href="#z"/><use transform="matrix(0.02530864197530864,0,0,0.02530864197530864,11.616666666666665,0)" xlink:href="#F"/><use transform="matrix(0.02530864197530864,0,0,0.02530864197530864,14.14753086419753,0)" xlink:href="#z"/><use transform="matrix(0.02530864197530864,0,0,0.02530864197530864,19.209259259259255,0)" xlink:href="#E"/><use transform="matrix(0.02530864197530864,0,0,0.02530864197530864,23.764814814814812,0)" xlink:href="#F"/><use transform="matrix(0.02530864197530864,0,0,0.02530864197530864,26.295679012345676,0)" xlink:href="#v"/><use transform="matrix(0.02530864197530864,0,0,0.02530864197530864,28.29506172839506,0)" xlink:href="#G"/><use transform="matrix(0.02530864197530864,0,0,0.02530864197530864,33.35679012345679,0)" xlink:href="#H"/></g><path d="M185-189c-5-48-123-54-124 2 14 75 158 14 163 119 3 78-121 87-175 55-17-10-28-26-33-46l33-7c5 56 141 63 141-1 0-78-155-14-162-118-5-82 145-84 179-34 5 7 8 16 11 25" id="J"/><path d="M143 4C61 4 22-44 18-125c-5-107 100-154 193-111 17 8 29 25 37 43l-32 9c-13-25-37-40-76-40-61 0-88 39-88 99 0 61 29 100 91 101 35 0 62-11 79-27v-45h-74v-28h105v86C228-13 192 4 143 4" id="K"/><path d="M30 0v-248h187v28H63v79h144v27H63v87h162V0H30" id="L"/><path d="M240 0l2-218c-23 76-54 145-80 218h-23L58-218 59 0H30v-248h44l77 211c21-75 51-140 76-211h43V0h-30" id="M"/><g id="d"><use transform="matrix(0.02530864197530864,0,0,0.02530864197530864,0,0)" xlink:href="#J"/><use transform="matrix(0.02530864197530864,0,0,0.02530864197530864,6.0740740740740735,0)" xlink:href="#K"/><use transform="matrix(0.02530864197530864,0,0,0.02530864197530864,13.160493827160492,0)" xlink:href="#L"/><use transform="matrix(0.02530864197530864,0,0,0.02530864197530864,19.234567901234566,0)" xlink:href="#M"/><use transform="matrix(0.02530864197530864,0,0,0.02530864197530864,26.80185185185185,0)" xlink:href="#M"/></g><g id="e"><use transform="matrix(0.02530864197530864,0,0,0.02530864197530864,0,0)" xlink:href="#D"/><use transform="matrix(0.02530864197530864,0,0,0.02530864197530864,2.530864197530864,0)" xlink:href="#G"/><use transform="matrix(0.02530864197530864,0,0,0.02530864197530864,7.592592592592592,0)" xlink:href="#G"/></g><path d="M115-194c55 1 70 41 70 98S169 2 115 4C84 4 66-9 55-30l1 105H24l-1-265h31l2 30c10-21 28-34 59-34zm-8 174c40 0 45-34 45-75s-6-73-45-74c-42 0-51 32-51 76 0 43 10 73 51 73" id="N"/><path d="M106-169C34-169 62-67 57 0H25v-261h32l-1 103c12-21 28-36 61-36 89 0 53 116 60 194h-32v-121c2-32-8-49-39-48" id="O"/><path d="M114-163C36-179 61-72 57 0H25l-1-190h30c1 12-1 29 2 39 6-27 23-49 58-41v29" id="P"/><g id="g"><use transform="matrix(0.02530864197530864,0,0,0.02530864197530864,0,0)" xlink:href="#I"/><use transform="matrix(0.02530864197530864,0,0,0.02530864197530864,6.554938271604938,0)" xlink:href="#v"/><use transform="matrix(0.02530864197530864,0,0,0.02530864197530864,8.55432098765432,0)" xlink:href="#C"/><use transform="matrix(0.02530864197530864,0,0,0.02530864197530864,13.109876543209875,0)" xlink:href="#N"/><use transform="matrix(0.02530864197530864,0,0,0.02530864197530864,18.171604938271603,0)" xlink:href="#x"/><use transform="matrix(0.02530864197530864,0,0,0.02530864197530864,23.23333333333333,0)" xlink:href="#F"/><use transform="matrix(0.02530864197530864,0,0,0.02530864197530864,25.764197530864195,0)" xlink:href="#E"/><use transform="matrix(0.02530864197530864,0,0,0.02530864197530864,30.319753086419748,0)" xlink:href="#O"/><use transform="matrix(0.02530864197530864,0,0,0.02530864197530864,35.38148148148148,0)" xlink:href="#z"/><use transform="matrix(0.02530864197530864,0,0,0.02530864197530864,40.44320987654321,0)" xlink:href="#P"/></g><filter id="f" filterUnits="objectBoundingBox" x="0" y="-.04" width="1.01" height="1.08"><feOffset result="offOut" in="SourceAlpha"/><feGaussianBlur result="blurOut" in="offOut" stdDeviation=".5"/><feColorMatrix result="colorOut" in="blurOut" values="0 0 0 0 0 0 0 0 0 0 0 0 0 0 0 0 0 0 0.5019607843137255 0"/><feBlend in="SourceGraphic" in2="colorOut"/></filter><path d="M137 0h-34L2-248h35l83 218 83-218h36" id="Q"/><path d="M233-177c-1 41-23 64-60 70L243 0h-38l-65-103H63V0H30v-248c88 3 205-21 203 71zM63-129c60-2 137 13 137-47 0-61-80-42-137-45v92" id="R"/><path d="M127-220V0H93v-220H8v-28h204v28h-85" id="S"/><g id="h"><use transform="matrix(0.043827160493827164,0,0,0.043827160493827164,0,0)" xlink:href="#Q"/><use transform="matrix(0.043827160493827164,0,0,0.043827160493827164,9.335185185185185,0)" xlink:href="#x"/><use transform="matrix(0.043827160493827164,0,0,0.043827160493827164,18.10061728395062,0)" xlink:href="#E"/><use transform="matrix(0.043827160493827164,0,0,0.043827160493827164,25.98950617283951,0)" xlink:href="#E"/><use transform="matrix(0.043827160493827164,0,0,0.043827160493827164,33.8783950617284,0)" xlink:href="#z"/><use transform="matrix(0.043827160493827164,0,0,0.043827160493827164,42.64382716049383,0)" xlink:href="#B"/><use transform="matrix(0.043827160493827164,0,0,0.043827160493827164,46.10617283950618,0)" xlink:href="#R"/><use transform="matrix(0.043827160493827164,0,0,0.043827160493827164,57.15061728395061,0)" xlink:href="#S"/></g><path d="M232-93c-1 65-40 97-104 97C67 4 28-28 28-90v-158h33c8 89-33 224 67 224 102 0 64-133 71-224h33v155" id="T"/><g id="i"><use transform="matrix(0.03765432098765432,0,0,0.03765432098765432,0,0)" xlink:href="#T"/><use transform="matrix(0.03765432098765432,0,0,0.03765432098765432,9.752469135802468,0)" xlink:href="#C"/><use transform="matrix(0.03765432098765432,0,0,0.03765432098765432,16.530246913580243,0)" xlink:href="#z"/><use transform="matrix(0.03765432098765432,0,0,0.03765432098765432,24.061111111111103,0)" xlink:href="#P"/></g><path d="M205 0l-28-72H64L36 0H1l101-248h38L239 0h-34zm-38-99l-47-123c-12 45-31 82-46 123h93" id="U"/><g id="j"><use transform="matrix(0.03765432098765432,0,0,0.03765432098765432,0,0)" xlink:href="#U"/><use transform="matrix(0.03765432098765432,0,0,0.03765432098765432,9.037037037037036,0)" xlink:href="#N"/><use transform="matrix(0.03765432098765432,0,0,0.03765432098765432,16.5679012345679,0)" xlink:href="#N"/><use transform="matrix(0.03765432098765432,0,0,0.03765432098765432,24.098765432098762,0)" xlink:href="#B"/><use transform="matrix(0.03765432098765432,0,0,0.03765432098765432,27.073456790123455,0)" xlink:href="#v"/><use transform="matrix(0.03765432098765432,0,0,0.03765432098765432,30.048148148148144,0)" xlink:href="#E"/><use transform="matrix(0.03765432098765432,0,0,0.03765432098765432,36.82592592592592,0)" xlink:href="#x"/><use transform="matrix(0.03765432098765432,0,0,0.03765432098765432,44.35679012345678,0)" xlink:href="#F"/><use transform="matrix(0.03765432098765432,0,0,0.03765432098765432,48.12222222222222,0)" xlink:href="#v"/><use transform="matrix(0.03765432098765432,0,0,0.03765432098765432,51.096913580246905,0)" xlink:href="#G"/><use transform="matrix(0.03765432098765432,0,0,0.03765432098765432,58.62777777777778,0)" xlink:href="#H"/></g><path fill="#fff" d="M128 0H69L1-190h53L99-40l48-150h52" id="V"/><path fill="#fff" d="M133-34C117-15 103 5 69 4 32 3 11-16 11-54c-1-60 55-63 116-61 1-26-3-47-28-47-18 1-26 9-28 27l-52-2c7-38 36-58 82-57s74 22 75 68l1 82c-1 14 12 18 25 15v27c-30 8-71 5-69-32zm-48 3c29 0 43-24 42-57-32 0-66-3-65 30 0 17 8 27 23 27" id="W"/><path fill="#fff" d="M190-63c-7 42-38 67-86 67-59 0-84-38-90-98-12-110 154-137 174-36l-49 2c-2-19-15-32-35-32-30 0-35 28-38 64-6 74 65 87 74 30" id="X"/><path fill="#fff" d="M185-48c-13 30-37 53-82 52C43 2 14-33 14-96s30-98 90-98c62 0 83 45 84 108H66c0 31 8 55 39 56 18 0 30-7 34-22zm-45-69c5-46-57-63-70-21-2 6-4 13-4 21h74" id="Y"/><path fill="#fff" d="M25 0v-261h50V0H25" id="Z"/><path fill="#fff" d="M14-72v-43h91v43H14" id="aa"/><path fill="#fff" d="M115-3C79 11 28 4 28-45v-112H4v-33h27l15-45h31v45h36v33H77v99c-1 23 16 31 38 25v30" id="ab"/><path fill="#fff" d="M135-194c87-1 58 113 63 194h-50c-7-57 23-157-34-157-59 0-34 97-39 157H25l-1-190h47c2 12-1 28 3 38 12-26 28-41 61-42" id="ac"/><path fill="#fff" d="M137-138c1-29-70-34-71-4 15 46 118 7 119 86 1 83-164 76-172 9l43-7c4 19 20 25 44 25 33 8 57-30 24-41C81-84 22-81 20-136c-2-80 154-74 161-7" id="ad"/><path fill="#fff" d="M110-194c64 0 96 36 96 99 0 64-35 99-97 99-61 0-95-36-95-99 0-62 34-99 96-99zm-1 164c35 0 45-28 45-65 0-40-10-65-43-65-34 0-45 26-45 65 0 36 10 65 43 65" id="ae"/><path fill="#fff" d="M135-150c-39-12-60 13-60 57V0H25l-1-190h47c2 13-1 29 3 40 6-28 27-53 61-41v41" id="af"/><path fill="#fff" d="M121-226c-27-7-43 5-38 36h38v33H83V0H34v-157H6v-33h28c-9-59 32-81 87-68v32" id="ag"/><path fill="#fff" d="M231 0h-52l-39-155L100 0H48L-1-190h46L77-45c9-52 24-97 36-145h53l37 145 32-145h46" id="ah"/><g id="k"><use transform="matrix(0.02469135802469136,0,0,0.02469135802469136,0,0)" xlink:href="#V"/><use transform="matrix(0.02469135802469136,0,0,0.02469135802469136,4.938271604938272,0)" xlink:href="#W"/><use transform="matrix(0.02469135802469136,0,0,0.02469135802469136,9.876543209876544,0)" xlink:href="#X"/><use transform="matrix(0.02469135802469136,0,0,0.02469135802469136,14.814814814814817,0)" xlink:href="#X"/><use transform="matrix(0.02469135802469136,0,0,0.02469135802469136,19.75308641975309,0)" xlink:href="#Y"/><use transform="matrix(0.02469135802469136,0,0,0.02469135802469136,24.69135802469136,0)" xlink:href="#Z"/><use transform="matrix(0.02469135802469136,0,0,0.02469135802469136,27.160493827160497,0)" xlink:href="#aa"/><use transform="matrix(0.02469135802469136,0,0,0.02469135802469136,30.09876543209877,0)" xlink:href="#ab"/><use transform="matrix(0.02469135802469136,0,0,0.02469135802469136,33.03703703703704,0)" xlink:href="#Y"/><use transform="matrix(0.02469135802469136,0,0,0.02469135802469136,37.97530864197531,0)" xlink:href="#ac"/><use transform="matrix(0.02469135802469136,0,0,0.02469135802469136,43.382716049382715,0)" xlink:href="#ad"/><use transform="matrix(0.02469135802469136,0,0,0.02469135802469136,48.32098765432099,0)" xlink:href="#ae"/><use transform="matrix(0.02469135802469136,0,0,0.02469135802469136,53.728395061728385,0)" xlink:href="#af"/><use transform="matrix(0.02469135802469136,0,0,0.02469135802469136,57.185185185185176,0)" xlink:href="#ag"/><use transform="matrix(0.02469135802469136,0,0,0.02469135802469136,60.12345679012345,0)" xlink:href="#Z"/><use transform="matrix(0.02469135802469136,0,0,0.02469135802469136,62.592592592592595,0)" xlink:href="#ae"/><use transform="matrix(0.02469135802469136,0,0,0.02469135802469136,68,0)" xlink:href="#ah"/></g><g id="l"><use transform="matrix(0.02469135802469136,0,0,0.02469135802469136,0,0)" xlink:href="#ab"/><use transform="matrix(0.02469135802469136,0,0,0.02469135802469136,2.9382716049382718,0)" xlink:href="#Y"/><use transform="matrix(0.02469135802469136,0,0,0.02469135802469136,7.8765432098765435,0)" xlink:href="#ac"/><use transform="matrix(0.02469135802469136,0,0,0.02469135802469136,13.283950617283951,0)" xlink:href="#ad"/><use transform="matrix(0.02469135802469136,0,0,0.02469135802469136,18.222222222222225,0)" xlink:href="#ae"/><use transform="matrix(0.02469135802469136,0,0,0.02469135802469136,23.629629629629633,0)" xlink:href="#af"/><use transform="matrix(0.02469135802469136,0,0,0.02469135802469136,27.08641975308642,0)" xlink:href="#ag"/><use transform="matrix(0.02469135802469136,0,0,0.02469135802469136,30.0246913580247,0)" xlink:href="#Z"/><use transform="matrix(0.02469135802469136,0,0,0.02469135802469136,32.49382716049384,0)" xlink:href="#ae"/><use transform="matrix(0.02469135802469136,0,0,0.02469135802469136,37.90123456790124,0)" xlink:href="#ah"/></g><path fill="#fff" d="M175 0L67-191c6 58 2 128 3 191H24v-248h59L193-55c-6-58-2-129-3-193h46V0h-61" id="ai"/><path fill="#fff" d="M25-224v-37h50v37H25zM25 0v-190h50V0H25" id="aj"/><path fill="#fff" d="M88-194c31-1 46 15 58 34l-1-101h50l1 261h-48c-2-10 0-23-3-31C134-8 116 4 84 4 32 4 16-41 15-95c0-56 19-97 73-99zm17 164c33 0 40-30 41-66 1-37-9-64-41-64s-38 30-39 65c0 43 13 65 39 65" id="ak"/><g id="m"><use transform="matrix(0.030864197530864196,0,0,0.030864197530864196,0,0)" xlink:href="#ai"/><use transform="matrix(0.030864197530864196,0,0,0.030864197530864196,7.993827160493827,0)" xlink:href="#V"/><use transform="matrix(0.030864197530864196,0,0,0.030864197530864196,14.166666666666666,0)" xlink:href="#aj"/><use transform="matrix(0.030864197530864196,0,0,0.030864197530864196,17.253086419753085,0)" xlink:href="#ak"/><use transform="matrix(0.030864197530864196,0,0,0.030864197530864196,24.012345679012345,0)" xlink:href="#aj"/><use transform="matrix(0.030864197530864196,0,0,0.030864197530864196,27.098765432098766,0)" xlink:href="#W"/></g><path fill="#fff" d="M199 0l-22-63H83L61 0H9l90-248h61L250 0h-51zm-33-102l-36-108c-10 38-24 72-36 108h72" id="al"/><path fill="#fff" d="M230 0l2-204L168 0h-37L68-204 70 0H24v-248h70l56 185 57-185h69V0h-46" id="am"/><path fill="#fff" d="M24-248c120-7 223 5 221 122C244-46 201 0 124 0H24v-248zM76-40c74 7 117-18 117-86 0-67-45-88-117-82v168" id="an"/><g id="n"><use transform="matrix(0.030864197530864196,0,0,0.030864197530864196,0,0)" xlink:href="#al"/><use transform="matrix(0.030864197530864196,0,0,0.030864197530864196,7.993827160493827,0)" xlink:href="#am"/><use transform="matrix(0.030864197530864196,0,0,0.030864197530864196,17.22222222222222,0)" xlink:href="#an"/></g><path fill="#fff" d="M76-208v77h127v40H76V0H24v-248h183v40H76" id="ao"/><path fill="#fff" d="M24-248c93 1 206-16 204 79-1 75-69 88-152 82V0H24v-248zm52 121c47 0 100 7 100-41 0-47-54-39-100-39v80" id="ap"/><path fill="#fff" d="M67-125c0 54 23 88 75 88 28 0 53-7 68-21v-34h-60v-39h108v91C232-14 192 4 140 4 58 4 20-42 15-125 8-236 126-280 215-234c19 10 29 26 37 47l-47 15c-11-23-29-39-63-39-53 1-75 33-75 86" id="aq"/><g id="o"><use transform="matrix(0.030864197530864196,0,0,0.030864197530864196,0,0)" xlink:href="#ao"/><use transform="matrix(0.030864197530864196,0,0,0.030864197530864196,6.759259259259259,0)" xlink:href="#ap"/><use transform="matrix(0.030864197530864196,0,0,0.030864197530864196,14.166666666666664,0)" xlink:href="#aq"/><use transform="matrix(0.030864197530864196,0,0,0.030864197530864196,22.80864197530864,0)" xlink:href="#al"/></g><g id="p"><use transform="matrix(0.02469135802469136,0,0,0.02469135802469136,0,0)" xlink:href="#V"/><use transform="matrix(0.02469135802469136,0,0,0.02469135802469136,4.938271604938272,0)" xlink:href="#W"/><use transform="matrix(0.02469135802469136,0,0,0.02469135802469136,9.876543209876544,0)" xlink:href="#X"/><use transform="matrix(0.02469135802469136,0,0,0.02469135802469136,14.814814814814817,0)" xlink:href="#X"/><use transform="matrix(0.02469135802469136,0,0,0.02469135802469136,19.75308641975309,0)" xlink:href="#Y"/><use transform="matrix(0.02469135802469136,0,0,0.02469135802469136,24.69135802469136,0)" xlink:href="#Z"/><use transform="matrix(0.02469135802469136,0,0,0.02469135802469136,27.160493827160497,0)" xlink:href="#aa"/><use transform="matrix(0.02469135802469136,0,0,0.02469135802469136,30.09876543209877,0)" xlink:href="#V"/><use transform="matrix(0.02469135802469136,0,0,0.02469135802469136,35.03703703703704,0)" xlink:href="#aj"/><use transform="matrix(0.02469135802469136,0,0,0.02469135802469136,37.50617283950618,0)" xlink:href="#af"/><use transform="matrix(0.02469135802469136,0,0,0.02469135802469136,40.96296296296297,0)" xlink:href="#ab"/><use transform="matrix(0.02469135802469136,0,0,0.02469135802469136,43.90123456790124,0)" xlink:href="#aj"/><use transform="matrix(0.02469135802469136,0,0,0.02469135802469136,46.37037037037038,0)" xlink:href="#ae"/></g><path fill="#fff" d="M4 7l51-268h42L46 7H4" id="ar"/><g id="q"><use transform="matrix(0.030864197530864196,0,0,0.030864197530864196,0,0)" xlink:href="#ar"/><use transform="matrix(0.030864197530864196,0,0,0.030864197530864196,3.0864197530864197,0)" xlink:href="#ak"/><use transform="matrix(0.030864197530864196,0,0,0.030864197530864196,9.845679012345679,0)" xlink:href="#Y"/><use transform="matrix(0.030864197530864196,0,0,0.030864197530864196,16.01851851851852,0)" xlink:href="#V"/><use transform="matrix(0.030864197530864196,0,0,0.030864197530864196,22.191358024691358,0)" xlink:href="#ar"/><use transform="matrix(0.030864197530864196,0,0,0.030864197530864196,25.27777777777778,0)" xlink:href="#W"/><use transform="matrix(0.030864197530864196,0,0,0.030864197530864196,31.450617283950617,0)" xlink:href="#X"/><use transform="matrix(0.030864197530864196,0,0,0.030864197530864196,37.623456790123456,0)" xlink:href="#X"/><use transform="matrix(0.030864197530864196,0,0,0.030864197530864196,43.7962962962963,0)" xlink:href="#Y"/><use transform="matrix(0.030864197530864196,0,0,0.030864197530864196,49.96913580246914,0)" xlink:href="#Z"/></g><path fill="#fff" d="M135-194c52 0 70 43 70 98 0 56-19 99-73 100-30 1-46-15-58-35L72 0H24l1-261h50v104c11-23 29-37 60-37zM114-30c31 0 40-27 40-66 0-37-7-63-39-63s-41 28-41 65c0 36 8 64 40 64" id="as"/><path fill="#fff" d="M85 4C-2 5 27-109 22-190h50c7 57-23 150 33 157 60-5 35-97 40-157h50l1 190h-47c-2-12 1-28-3-38-12 25-28 42-61 42" id="at"/><g id="r"><use transform="matrix(0.02469135802469136,0,0,0.02469135802469136,0,0)" xlink:href="#Z"/><use transform="matrix(0.02469135802469136,0,0,0.02469135802469136,2.469135802469136,0)" xlink:href="#aj"/><use transform="matrix(0.02469135802469136,0,0,0.02469135802469136,4.938271604938272,0)" xlink:href="#as"/><use transform="matrix(0.02469135802469136,0,0,0.02469135802469136,10.34567901234568,0)" xlink:href="#X"/><use transform="matrix(0.02469135802469136,0,0,0.02469135802469136,15.283950617283953,0)" xlink:href="#at"/><use transform="matrix(0.02469135802469136,0,0,0.02469135802469136,20.69135802469136,0)" xlink:href="#as"/><use transform="matrix(0.02469135802469136,0,0,0.02469135802469136,26.09876543209877,0)" xlink:href="#Z"/><use transform="matrix(0.02469135802469136,0,0,0.02469135802469136,28.567901234567902,0)" xlink:href="#W"/><use transform="matrix(0.02469135802469136,0,0,0.02469135802469136,33.50617283950618,0)" xlink:href="#ad"/></g><g id="s"><use transform="matrix(0.02469135802469136,0,0,0.02469135802469136,0,0)" xlink:href="#V"/><use transform="matrix(0.02469135802469136,0,0,0.02469135802469136,4.938271604938272,0)" xlink:href="#W"/><use transform="matrix(0.02469135802469136,0,0,0.02469135802469136,9.876543209876544,0)" xlink:href="#X"/><use transform="matrix(0.02469135802469136,0,0,0.02469135802469136,14.814814814814817,0)" xlink:href="#X"/><use transform="matrix(0.02469135802469136,0,0,0.02469135802469136,19.75308641975309,0)" xlink:href="#Y"/><use transform="matrix(0.02469135802469136,0,0,0.02469135802469136,24.69135802469136,0)" xlink:href="#Z"/><use transform="matrix(0.02469135802469136,0,0,0.02469135802469136,27.160493827160497,0)" xlink:href="#aa"/><use transform="matrix(0.02469135802469136,0,0,0.02469135802469136,30.09876543209877,0)" xlink:href="#as"/><use transform="matrix(0.02469135802469136,0,0,0.02469135802469136,35.50617283950618,0)" xlink:href="#Z"/><use transform="matrix(0.02469135802469136,0,0,0.02469135802469136,37.97530864197532,0)" xlink:href="#W"/><use transform="matrix(0.02469135802469136,0,0,0.02469135802469136,42.91358024691359,0)" xlink:href="#ad"/></g><path fill="#fff" d="M25-224v-37h50v37H25zM75 22c2 45-34 59-81 51V38c22 5 31-5 31-27v-201h50V22" id="au"/><g id="t"><use transform="matrix(0.02469135802469136,0,0,0.02469135802469136,0,0)" xlink:href="#V"/><use transform="matrix(0.02469135802469136,0,0,0.02469135802469136,4.938271604938272,0)" xlink:href="#W"/><use transform="matrix(0.02469135802469136,0,0,0.02469135802469136,9.876543209876544,0)" xlink:href="#X"/><use transform="matrix(0.02469135802469136,0,0,0.02469135802469136,14.814814814814817,0)" xlink:href="#X"/><use transform="matrix(0.02469135802469136,0,0,0.02469135802469136,19.75308641975309,0)" xlink:href="#Y"/><use transform="matrix(0.02469135802469136,0,0,0.02469135802469136,24.69135802469136,0)" xlink:href="#Z"/><use transform="matrix(0.02469135802469136,0,0,0.02469135802469136,27.160493827160497,0)" xlink:href="#aa"/><use transform="matrix(0.02469135802469136,0,0,0.02469135802469136,30.09876543209877,0)" xlink:href="#au"/><use transform="matrix(0.02469135802469136,0,0,0.02469135802469136,32.567901234567906,0)" xlink:href="#Y"/><use transform="matrix(0.02469135802469136,0,0,0.02469135802469136,37.50617283950618,0)" xlink:href="#ab"/><use transform="matrix(0.02469135802469136,0,0,0.02469135802469136,40.44444444444445,0)" xlink:href="#ad"/><use transform="matrix(0.02469135802469136,0,0,0.02469135802469136,45.38271604938272,0)" xlink:href="#ae"/><use transform="matrix(0.02469135802469136,0,0,0.02469135802469136,50.79012345679013,0)" xlink:href="#ac"/></g><g id="u"><use transform="matrix(0.02469135802469136,0,0,0.02469135802469136,0,0)" xlink:href="#Z"/><use transform="matrix(0.02469135802469136,0,0,0.02469135802469136,2.469135802469136,0)" xlink:href="#aj"/><use transform="matrix(0.02469135802469136,0,0,0.02469135802469136,4.938271604938272,0)" xlink:href="#as"/><use transform="matrix(0.02469135802469136,0,0,0.02469135802469136,10.34567901234568,0)" xlink:href="#au"/><use transform="matrix(0.02469135802469136,0,0,0.02469135802469136,12.814814814814817,0)" xlink:href="#Y"/><use transform="matrix(0.02469135802469136,0,0,0.02469135802469136,17.75308641975309,0)" xlink:href="#ab"/><use transform="matrix(0.02469135802469136,0,0,0.02469135802469136,20.69135802469136,0)" xlink:href="#ad"/><use transform="matrix(0.02469135802469136,0,0,0.02469135802469136,25.629629629629633,0)" xlink:href="#ae"/><use transform="matrix(0.02469135802469136,0,0,0.02469135802469136,31.037037037037038,0)" xlink:href="#ac"/><use transform="matrix(0.02469135802469136,0,0,0.02469135802469136,36.44444444444445,0)" xlink:href="#aa"/><use transform="matrix(0.02469135802469136,0,0,0.02469135802469136,39.38271604938272,0)" xlink:href="#aj"/><use transform="matrix(0.02469135802469136,0,0,0.02469135802469136,41.85185185185186,0)" xlink:href="#ac"/><use transform="matrix(0.02469135802469136,0,0,0.02469135802469136,47.25925925925927,0)" xlink:href="#ag"/><use transform="matrix(0.02469135802469136,0,0,0.02469135802469136,50.19753086419754,0)" xlink:href="#Y"/><use transform="matrix(0.02469135802469136,0,0,0.02469135802469136,55.135802469135804,0)" xlink:href="#af"/><use transform="matrix(0.02469135802469136,0,0,0.02469135802469136,58.592592592592595,0)" xlink:href="#Y"/><use transform="matrix(0.02469135802469136,0,0,0.02469135802469136,63.53086419753087,0)" xlink:href="#ac"/><use transform="matrix(0.02469135802469136,0,0,0.02469135802469136,68.93827160493828,0)" xlink:href="#X"/><use transform="matrix(0.02469135802469136,0,0,0.02469135802469136,73.87654320987656,0)" xlink:href="#Y"/></g></defs></g></svg>